<svg width="1280" height="140" viewBox="0 0 1280 140" fill="none" xmlns="http://www.w3.org/2000/svg">
<path d="M292.079 117.039C274.147 109.557 252.969 110.302 235.606 119.023C234.232 108.127 218.725 102.255 210.479 109.508C201.329 94.629 183.616 85.462 166.185 86.585C148.754 87.707 132.363 99.07 125.197 115C127.972 104.943 124.542 93.439 116.712 86.545C108.882 79.65 97.037 77.703 87.412 81.7271C84.471 72.3451 70.983 68.39 63.442 74.699C56.695 55.926 42.413 39.983 24.493 31.218C16.808 27.459 8.489 25.049 0 24V140.374H321.125C313.802 130.144 303.698 121.886 292.079 117.039Z" fill="white"/>
<path d="M48.5734 110.019C50.6654 109.116 52.7934 108.217 55.0494 107.897C57.3054 107.577 59.7404 107.894 61.5784 109.241C63.4164 110.588 65.4784 112.726 64.7134 114.872C70.2184 111.247 77.1834 109.913 83.6384 111.248C90.0934 112.583 96.2324 116.912 99.8484 122.424C98.1134 115.756 93.3704 109.932 87.1914 106.883C81.0124 103.835 73.5044 103.615 67.1574 106.296C66.7184 103.513 64.7614 101.018 62.1634 99.9282C59.5654 98.8382 56.4144 99.1902 54.1204 100.826C54.0174 91.8802 50.2084 83.0322 43.7814 76.8092C37.3544 70.5862 28.3884 67.0642 19.4434 67.2502C27.9034 69.9002 36.0564 75.9642 41.1484 83.2212C46.2394 90.4802 48.9604 101.162 48.5734 110.019Z" fill="#C8E3FE"/>
<path d="M200.944 122.564C197.451 118.459 191.675 116.436 186.385 117.465C181.094 118.494 176.497 122.533 174.797 127.647C181.48 122.054 192.727 119.658 200.944 122.564Z" fill="#C8E3FE"/>
<path d="M1256.61 29.361C1233.55 33.538 1219.89 63.857 1232.03 83.901C1227.83 75.665 1217.82 70.851 1208.76 72.712C1199.71 74.573 1192.4 82.947 1191.79 92.172C1179.82 85.7 1162.97 98.907 1166.39 112.083C1145.21 102.771 1120.02 103.066 1099.07 112.871C1086.25 118.867 1075.16 128.361 1067 139.911H1280.01V0C1269.59 7.33 1261.19 17.441 1256.61 29.361Z" fill="white"/>
<path d="M1271.18 102.995C1266.68 97.5569 1259.67 94.2969 1252.61 94.3729C1245.56 94.4479 1238.61 97.8569 1234.24 103.39C1232.39 98.9429 1226.75 96.5119 1222.25 98.2279C1217.75 99.9439 1215.16 105.519 1216.74 110.065C1209.7 105.581 1199.03 108.661 1195.46 116.207C1203.12 110.639 1213.51 111.67 1220.84 117.667C1219.27 113.719 1221.3 108.719 1225.17 106.97C1229.04 105.221 1234.13 107.005 1236.06 110.786C1237.36 104.995 1245.06 101.452 1250.97 100.829C1256.87 100.206 1265.52 101.185 1271.18 102.995Z" fill="#C8E3FE"/>
<path d="M1178.62 128.212C1175.61 122.042 1168.99 117.808 1162.13 117.67C1155.26 117.532 1148.48 121.497 1145.22 127.541C1154.19 121.532 1169.82 121.961 1178.62 128.212Z" fill="#C8E3FE"/>
<path d="M739.354 125.153C739.176 114.351 730.878 104.213 720.324 101.904C709.77 99.5948 697.997 105.341 693.324 115.082C692.1 96.9918 674.988 81.4718 656.865 82.0138C638.742 82.5568 622.589 99.0718 622.449 117.203C616.123 114.943 607.824 121.564 610.098 127.885C599.108 120.637 584.809 118.648 572.259 122.62C562.862 125.594 554.588 131.867 549 139.974H827.907C804.457 118.955 768.328 112.302 739.354 125.153Z" fill="white"/>
<path d="M684.773 118.001C682.478 112.659 676.622 109.072 670.82 109.456C665.019 109.839 659.685 114.165 658.112 119.762C655.886 117.839 652.474 117.425 649.852 118.76C647.23 120.095 645.559 123.098 645.805 126.03C646.895 123.277 649.45 121.883 652.39 121.529C655.33 121.175 658.413 122.541 660.126 124.957C661.534 120.464 665.635 116.854 670.162 115.56C674.691 114.267 681.203 114.93 684.773 118.001Z" fill="#C8E3FE"/>
<path d="M732.533 133.667C731.159 128.333 726.466 124.01 721.038 123.076C715.61 122.142 709.742 124.649 706.664 129.217C714.572 125.821 726.403 127.626 732.533 133.667Z" fill="#C8E3FE"/>
</svg>
