<svg width="468" height="299" viewBox="0 0 468 299" fill="none" xmlns="http://www.w3.org/2000/svg">
<path d="M96.3331 230.201C83.9484 210.941 76.734 187.514 80.6038 164.945C84.4737 142.376 100.935 121.367 123.204 116.034C138.607 112.344 154.766 116.142 170.573 115.139C186.38 114.136 204.197 105.323 206.032 89.5915C207.5 77.0058 198.073 65.3787 198.16 52.7077C198.236 41.5145 206.011 31.4329 215.737 25.8919C225.464 20.3509 236.886 18.6478 248.056 17.9237C322.651 13.0847 398.572 50.5128 440.158 112.63C456.588 137.171 468.025 166.001 467.172 195.522C466.319 225.044 451.629 255.042 425.878 269.502C407.106 280.044 384.78 281.596 363.291 282.912C323.202 285.366 283.114 287.821 243.026 290.276C213.945 292.057 179.993 294.442 152.183 283.449C129.669 274.549 108.951 249.826 96.3331 230.201Z" fill="#D9F2EF"/>
<path d="M138.358 34.1287C129.366 35.0682 118.871 37.7999 112.988 44.2316C106.611 51.2024 102.544 60.6202 105.042 70.1476C107.802 80.6677 117.916 87.9636 128.483 90.5354C142.649 93.982 158.964 89.7505 168.756 78.6974C178.075 68.1772 178.141 51.7552 167.353 41.8334C160.593 35.6163 150.924 33.3026 141.756 33.8508C140.658 33.9155 139.52 34.0069 138.358 34.1287Z" fill="#D9F2EF"/>
<path d="M95.5184 24.998C95.6075 24.998 95.6981 24.979 95.7841 24.9401C96.1122 24.7917 96.4396 24.6409 96.7662 24.4894C97.089 24.3394 97.2284 23.9565 97.0784 23.6337C96.9284 23.3109 96.5454 23.1716 96.2226 23.3215C95.8998 23.4715 95.5762 23.62 95.2527 23.7669C94.9283 23.9139 94.7852 24.2953 94.9321 24.6196C95.0387 24.8572 95.2732 24.998 95.5184 24.998Z" fill="white"/>
<path d="M233.128 162.062C233.209 162.062 233.291 162.047 233.371 162.014C233.7 161.879 233.858 161.503 233.723 161.173C233.45 160.507 233.158 159.834 232.857 159.176C232.708 158.851 232.326 158.711 232.002 158.857C231.679 159.006 231.537 159.388 231.685 159.712C231.98 160.355 232.264 161.011 232.53 161.661C232.633 161.912 232.873 162.062 233.128 162.062ZM229.239 154.395C229.353 154.395 229.469 154.364 229.574 154.3C229.877 154.115 229.973 153.718 229.788 153.415C229.412 152.799 229.018 152.181 228.617 151.579C228.42 151.283 228.02 151.202 227.724 151.399C227.427 151.597 227.348 151.996 227.544 152.292C227.936 152.881 228.321 153.485 228.688 154.085C228.809 154.285 229.022 154.395 229.239 154.395ZM224.205 147.421C224.352 147.421 224.499 147.371 224.62 147.269C224.891 147.04 224.926 146.633 224.697 146.361C224.233 145.811 223.75 145.261 223.261 144.725C223.022 144.462 222.614 144.442 222.352 144.682C222.088 144.922 222.069 145.329 222.309 145.592C222.786 146.117 223.258 146.654 223.711 147.192C223.84 147.344 224.022 147.421 224.205 147.421ZM218.181 141.282C218.36 141.282 218.538 141.207 218.665 141.063C218.901 140.796 218.874 140.388 218.607 140.154C218.067 139.679 217.507 139.207 216.945 138.749C216.669 138.525 216.263 138.566 216.039 138.843C215.814 139.119 215.856 139.524 216.132 139.749C216.682 140.197 217.229 140.658 217.756 141.123C217.879 141.229 218.03 141.282 218.181 141.282ZM211.312 136.109C211.525 136.109 211.732 136.004 211.855 135.813C212.047 135.513 211.96 135.114 211.66 134.923C211.049 134.53 210.425 134.147 209.806 133.783C209.5 133.602 209.105 133.705 208.924 134.011C208.743 134.318 208.846 134.713 209.152 134.894C209.757 135.249 210.367 135.624 210.964 136.007C211.072 136.076 211.193 136.109 211.312 136.109ZM203.738 132.037C203.986 132.037 204.222 131.894 204.328 131.653C204.472 131.327 204.325 130.947 203.999 130.803C203.338 130.512 202.662 130.23 201.989 129.965C201.658 129.835 201.284 129.998 201.154 130.329C201.024 130.661 201.186 131.034 201.518 131.165C202.175 131.423 202.835 131.698 203.48 131.983C203.563 132.02 203.652 132.037 203.738 132.037ZM195.617 129.218C195.904 129.218 196.166 129.024 196.241 128.734C196.329 128.389 196.121 128.038 195.777 127.949C195.071 127.768 194.357 127.601 193.655 127.452C193.307 127.382 192.966 127.602 192.892 127.949C192.818 128.297 193.04 128.639 193.388 128.713C194.073 128.859 194.768 129.021 195.457 129.198C195.51 129.212 195.564 129.218 195.617 129.218ZM187.142 127.758C187.469 127.758 187.748 127.511 187.782 127.179C187.819 126.825 187.561 126.509 187.207 126.472C186.488 126.399 185.769 126.335 185.048 126.279C184.693 126.253 184.383 126.517 184.356 126.871C184.328 127.226 184.593 127.536 184.948 127.564C185.658 127.62 186.368 127.682 187.076 127.755C187.099 127.756 187.12 127.758 187.142 127.758ZM178.553 127.209C178.896 127.209 179.182 126.938 179.196 126.591C179.21 126.236 178.935 125.936 178.579 125.921L176.429 125.834C176.066 125.821 175.773 126.096 175.759 126.451C175.744 126.807 176.02 127.107 176.376 127.121L178.526 127.209C178.535 127.209 178.544 127.209 178.553 127.209ZM169.956 126.779C170.291 126.779 170.573 126.521 170.598 126.182C170.624 125.828 170.358 125.519 170.004 125.493C169.293 125.44 168.583 125.381 167.874 125.311C167.528 125.279 167.205 125.536 167.171 125.89C167.136 126.244 167.396 126.559 167.749 126.594C168.468 126.663 169.187 126.724 169.908 126.777C169.924 126.779 169.94 126.779 169.956 126.779ZM161.427 125.666C161.726 125.666 161.994 125.458 162.057 125.154C162.13 124.806 161.907 124.464 161.558 124.391C160.868 124.246 160.173 124.083 159.494 123.904C159.149 123.814 158.797 124.019 158.707 124.363C158.616 124.707 158.822 125.059 159.166 125.15C159.866 125.334 160.582 125.503 161.294 125.653C161.339 125.662 161.384 125.666 161.427 125.666ZM153.246 123.027C153.491 123.027 153.725 122.887 153.833 122.648C153.98 122.324 153.836 121.943 153.511 121.796C152.864 121.503 152.227 121.19 151.617 120.865C151.303 120.698 150.913 120.818 150.746 121.132C150.579 121.446 150.698 121.836 151.013 122.003C151.646 122.341 152.309 122.666 152.981 122.97C153.067 123.009 153.157 123.027 153.246 123.027ZM145.998 118.446C146.177 118.446 146.355 118.373 146.482 118.227C146.717 117.96 146.691 117.553 146.423 117.318C145.894 116.853 145.387 116.365 144.918 115.869C144.674 115.61 144.266 115.598 144.008 115.843C143.749 116.087 143.737 116.495 143.982 116.753C144.478 117.279 145.014 117.794 145.574 118.286C145.695 118.394 145.846 118.446 145.998 118.446ZM140.822 111.654C140.913 111.654 141.005 111.635 141.093 111.594C141.415 111.445 141.556 111.062 141.407 110.739C141.238 110.373 141.079 109.999 140.936 109.625C140.831 109.354 140.735 109.081 140.644 108.808C140.532 108.47 140.167 108.287 139.83 108.399C139.492 108.511 139.31 108.876 139.421 109.214C139.518 109.505 139.622 109.797 139.733 110.087C139.887 110.487 140.056 110.889 140.238 111.281C140.346 111.515 140.579 111.654 140.822 111.654ZM138.959 103.312C138.966 103.312 138.974 103.312 138.981 103.311C139.336 103.3 139.615 103.002 139.603 102.646C139.593 102.343 139.589 102.04 139.589 101.735C139.589 101.338 139.597 100.939 139.612 100.541C139.625 100.185 139.348 99.8858 138.993 99.8721C138.63 99.8668 138.338 100.136 138.324 100.491C138.308 100.907 138.3 101.322 138.301 101.735C138.301 102.053 138.306 102.371 138.316 102.688C138.327 103.037 138.613 103.312 138.959 103.312ZM139.696 94.7498C140.004 94.7498 140.276 94.5283 140.33 94.2139C140.449 93.5134 140.579 92.8115 140.714 92.1088C140.781 91.7593 140.553 91.4213 140.203 91.3543C139.853 91.288 139.516 91.5157 139.449 91.8651C139.312 92.577 139.181 93.2873 139.06 93.9969C139 94.3478 139.236 94.6806 139.587 94.7407C139.623 94.7468 139.66 94.7498 139.696 94.7498ZM141.356 86.3013C141.658 86.3013 141.928 86.0873 141.988 85.7798C142.126 85.0694 142.259 84.3599 142.382 83.6518C142.443 83.3016 142.209 82.9681 141.858 82.9065C141.51 82.8471 141.174 83.0793 141.113 83.4303C140.991 84.1299 140.86 84.8311 140.723 85.5331C140.656 85.8825 140.883 86.2206 141.233 86.2883C141.274 86.2975 141.316 86.3013 141.356 86.3013ZM142.509 77.7796C142.851 77.7796 143.136 77.5101 143.152 77.1645C143.174 76.6688 143.185 76.1762 143.185 75.6989C143.185 75.4553 143.183 75.2116 143.177 74.9688C143.168 74.6132 142.877 74.3315 142.517 74.3407C142.161 74.3498 141.881 74.6452 141.889 75.0007C141.895 75.2329 141.897 75.4651 141.897 75.6981C141.897 76.1564 141.887 76.63 141.865 77.1066C141.849 77.4621 142.125 77.7629 142.48 77.7789C142.49 77.7789 142.5 77.7796 142.509 77.7796ZM141.503 69.2801C141.569 69.2801 141.636 69.2694 141.703 69.2481C142.041 69.1377 142.226 68.7738 142.116 68.4357C141.921 67.8381 141.696 67.2465 141.447 66.6763C141.401 66.5712 141.354 66.4669 141.306 66.3634C141.158 66.0398 140.777 65.8982 140.452 66.0466C140.129 66.1951 139.987 66.5773 140.136 66.9009C140.18 66.9968 140.223 67.0943 140.266 67.1917C140.499 67.7246 140.709 68.2774 140.891 68.8354C140.98 69.1065 141.232 69.2801 141.503 69.2801ZM137.074 61.991C137.236 61.991 137.397 61.9309 137.523 61.8098C137.778 61.5624 137.785 61.1543 137.537 60.8985C137.033 60.3785 136.489 59.8699 135.919 59.3872C135.647 59.1573 135.241 59.1908 135.011 59.4626C134.781 59.7344 134.815 60.1409 135.086 60.3709C135.624 60.8262 136.137 61.3058 136.612 61.7961C136.738 61.9255 136.906 61.991 137.074 61.991ZM130.103 57.0088C130.339 57.0088 130.566 56.8786 130.68 56.6533C130.84 56.335 130.711 55.9483 130.393 55.7884C129.756 55.4686 129.085 55.1595 128.4 54.8694C128.073 54.7309 127.695 54.8839 127.556 55.2113C127.417 55.5387 127.57 55.917 127.898 56.0556C128.557 56.335 129.203 56.6327 129.816 56.9395C129.908 56.9867 130.006 57.0088 130.103 57.0088ZM122.02 54.0929C122.309 54.0929 122.572 53.8965 122.645 53.6026C122.73 53.2569 122.518 52.9083 122.173 52.823C121.476 52.6517 120.76 52.4926 120.043 52.3509C119.693 52.2832 119.355 52.5093 119.286 52.858C119.217 53.2067 119.445 53.5462 119.793 53.6148C120.49 53.7526 121.187 53.9071 121.866 54.0739C121.917 54.0868 121.969 54.0929 122.02 54.0929ZM113.53 52.7263C113.857 52.7263 114.137 52.4789 114.17 52.1469C114.206 51.7929 113.948 51.4769 113.594 51.4412C112.877 51.3688 112.159 51.3033 111.441 51.2424C111.084 51.2112 110.775 51.4754 110.744 51.8294C110.714 52.1835 110.976 52.4956 111.331 52.5261C112.043 52.587 112.754 52.6517 113.464 52.7232C113.486 52.7255 113.508 52.7263 113.53 52.7263ZM104.95 52.0297C105.282 52.0297 105.565 51.7739 105.591 51.4366C105.62 51.0818 105.355 50.7719 105.001 50.7438C104.287 50.6874 103.575 50.628 102.864 50.5633C102.506 50.5283 102.196 50.7917 102.164 51.1465C102.131 51.5005 102.392 51.8142 102.747 51.8462C103.463 51.9109 104.181 51.971 104.899 52.0281C104.915 52.0289 104.932 52.0297 104.95 52.0297ZM96.4005 51.059C96.7096 51.059 96.983 50.8359 97.0347 50.5207C97.0934 50.1697 96.8558 49.8378 96.5049 49.7799C95.7923 49.6611 95.0887 49.531 94.4142 49.3916C94.0647 49.3201 93.7244 49.5439 93.6529 49.8918C93.5805 50.2405 93.8051 50.5808 94.153 50.6532C94.8436 50.7963 95.5638 50.9295 96.2932 51.0506C96.3297 51.0559 96.3655 51.059 96.4005 51.059ZM88.0814 48.9036C88.3425 48.9036 88.5885 48.7437 88.6852 48.4841C88.8093 48.1506 88.6402 47.7799 88.3068 47.6558C87.6551 47.4129 86.9957 47.1464 86.3471 46.864C86.0204 46.7224 85.6413 46.8716 85.499 47.1975C85.3574 47.5233 85.5066 47.9032 85.8324 48.0456C86.5024 48.3372 87.183 48.612 87.856 48.8633C87.9306 48.8907 88.0068 48.9036 88.0814 48.9036ZM80.3866 45.0939C80.602 45.0939 80.8129 44.9858 80.9347 44.7893C81.122 44.4871 81.0292 44.0897 80.7269 43.9024C80.1353 43.5362 79.5354 43.1471 78.9438 42.7459C78.6492 42.5464 78.2487 42.6233 78.0493 42.918C77.8498 43.2126 77.9267 43.6131 78.2213 43.8125C78.8281 44.2237 79.4425 44.6226 80.0485 44.998C80.1536 45.0627 80.2708 45.0939 80.3866 45.0939ZM73.4394 40.0226C73.6236 40.0226 73.8064 39.9442 73.9342 39.7919C74.1627 39.5194 74.1269 39.1128 73.8535 38.8844C73.3084 38.4284 72.7686 37.964 72.2334 37.4919C71.9669 37.2559 71.5596 37.2818 71.3244 37.5483C71.0891 37.8147 71.1143 38.222 71.3807 38.4573C71.9243 38.9369 72.4724 39.409 73.0259 39.8726C73.147 39.9731 73.2939 40.0226 73.4394 40.0226ZM46.5649 35.4927C46.8831 35.4927 47.2021 35.4911 47.5204 35.4888C47.8759 35.4858 48.1622 35.195 48.1591 34.8394C48.1561 34.4839 47.8592 34.1877 47.5097 34.2007C46.7964 34.206 46.0822 34.2052 45.3696 34.1984C45.3673 34.1984 45.3651 34.1984 45.3628 34.1984C45.0095 34.1984 44.7225 34.4824 44.7187 34.8364C44.7149 35.1919 45.0011 35.4835 45.3567 35.4873C45.7594 35.4904 46.1622 35.4927 46.5649 35.4927ZM53.9659 35.2643C53.9796 35.2643 53.9925 35.2635 54.0062 35.2627C54.7257 35.2186 55.4452 35.1676 56.1639 35.1097C56.5186 35.0815 56.7828 34.7709 56.7547 34.4161C56.7265 34.0613 56.4151 33.7941 56.0611 33.8253C55.35 33.8817 54.6381 33.9327 53.9263 33.9768C53.5715 33.9989 53.3012 34.3042 53.3233 34.6597C53.3446 35.0008 53.6278 35.2643 53.9659 35.2643ZM38.9135 35.2467C39.2507 35.2467 39.534 34.9848 39.556 34.6438C39.5789 34.2882 39.3094 33.9822 38.9546 33.9593C38.2427 33.9136 37.5309 33.8611 36.8198 33.8025C36.4658 33.7751 36.1544 34.037 36.1247 34.3918C36.0957 34.7458 36.3592 35.0572 36.714 35.0869C37.4327 35.1462 38.1514 35.1988 38.8716 35.2452C38.8853 35.2467 38.899 35.2467 38.9135 35.2467ZM62.5302 34.4253C62.5583 34.4253 62.588 34.4237 62.6169 34.4199C63.3318 34.324 64.0452 34.222 64.7586 34.1131C65.1104 34.059 65.3517 33.7309 65.2984 33.3792C65.2443 33.0274 64.9162 32.7861 64.5645 32.8394C63.8595 32.9467 63.1529 33.048 62.4456 33.1432C62.0932 33.1904 61.8457 33.5147 61.8929 33.8672C61.9363 34.1908 62.2127 34.4253 62.5302 34.4253ZM30.3514 34.3819C30.6682 34.3819 30.9445 34.1481 30.9887 33.8261C31.0374 33.4736 30.7907 33.1485 30.4382 33.0998C29.7317 33.0023 29.026 32.898 28.3217 32.7869C27.9708 32.7336 27.6403 32.9719 27.5847 33.3228C27.5292 33.6746 27.7697 34.0042 28.1207 34.0598C28.8333 34.1717 29.5467 34.2776 30.2616 34.3758C30.2921 34.3796 30.3217 34.3819 30.3514 34.3819ZM67.105 34.1946C67.271 34.1946 67.4362 34.1306 67.5618 34.0042C67.813 33.7515 67.8108 33.3442 67.5588 33.0937C67.0517 32.5904 66.5485 32.0834 66.0475 31.5725C65.7986 31.3182 65.3905 31.3144 65.1362 31.5634C64.8819 31.8123 64.8781 32.2204 65.1271 32.4747C65.6318 32.9894 66.1397 33.5017 66.6505 34.008C66.7769 34.1321 66.9406 34.1946 67.105 34.1946ZM71.013 32.9757C71.0564 32.9757 71.1006 32.9711 71.1447 32.962C71.8505 32.815 72.5555 32.662 73.2589 32.5021C73.6061 32.4229 73.8231 32.0781 73.7447 31.7316C73.6662 31.3845 73.3206 31.166 72.9734 31.2459C72.2776 31.4035 71.5809 31.555 70.882 31.7012C70.5341 31.7735 70.3103 32.1146 70.3834 32.4633C70.4466 32.7671 70.7145 32.9757 71.013 32.9757ZM21.8755 32.8889C22.1724 32.8889 22.4396 32.6818 22.5051 32.3795C22.5797 32.0316 22.3582 31.689 22.0102 31.6144C21.3128 31.4652 20.617 31.3083 19.9226 31.1454C19.5785 31.0662 19.2298 31.2794 19.1484 31.6258C19.0669 31.9722 19.2823 32.3186 19.6288 32.4001C20.3307 32.5645 21.035 32.7229 21.74 32.8744C21.7856 32.8843 21.8306 32.8889 21.8755 32.8889ZM79.3694 30.9185C79.428 30.9185 79.4874 30.9109 79.5461 30.8934C80.2396 30.6962 80.9309 30.4922 81.6207 30.2813C81.961 30.1778 82.1529 29.8176 82.0493 29.4773C81.9458 29.137 81.5849 28.9451 81.2453 29.0487C80.5632 29.2565 79.8788 29.4583 79.1928 29.654C78.8502 29.7514 78.6522 30.1077 78.7497 30.4503C78.8311 30.7335 79.0892 30.9185 79.3694 30.9185ZM13.5716 30.6376C13.8342 30.6376 14.0816 30.4754 14.1768 30.2135C14.2986 29.8793 14.1266 29.5093 13.7916 29.3882C13.1155 29.1416 12.4532 28.8789 11.8251 28.6079C11.4984 28.4663 11.1193 28.617 10.9785 28.9436C10.8376 29.2702 10.9876 29.6494 11.3142 29.7902C11.9652 30.0719 12.6504 30.3437 13.3508 30.598C13.4239 30.6254 13.4985 30.6376 13.5716 30.6376ZM87.5538 28.2577C87.6277 28.2577 87.7023 28.2447 87.7754 28.2181C88.4522 27.9699 89.1275 27.7156 89.7998 27.4552C90.1317 27.3265 90.2961 26.9535 90.1675 26.6215C90.0388 26.2904 89.6658 26.1252 89.3338 26.2538C88.6684 26.5112 88.0007 26.7632 87.3315 27.0083C86.9973 27.1309 86.826 27.5009 86.9485 27.8351C87.0445 28.0963 87.2911 28.2577 87.5538 28.2577ZM61.1255 27.9988C61.2838 27.9988 61.4422 27.9409 61.5663 27.8237C61.8259 27.5801 61.8381 27.172 61.5945 26.9131L60.1228 25.3448C59.8799 25.0852 59.4719 25.0715 59.2122 25.3151C58.9526 25.558 58.9397 25.966 59.1825 26.2257L60.655 27.7955C60.7829 27.931 60.9542 27.9988 61.1255 27.9988ZM5.9818 26.6413C6.17517 26.6413 6.36552 26.5553 6.49268 26.3901C6.70966 26.1084 6.65712 25.7041 6.37543 25.4864C5.80975 25.0509 5.28363 24.5941 4.81084 24.1282C4.55655 23.8792 4.14928 23.8823 3.89955 24.135C3.64983 24.3885 3.65286 24.7966 3.90639 25.0463C4.41647 25.5488 4.98291 26.0399 5.58971 26.5073C5.70618 26.5972 5.84399 26.6413 5.9818 26.6413ZM55.216 21.7399C55.3766 21.7399 55.538 21.6797 55.6629 21.5594C55.9187 21.3127 55.9263 20.9047 55.6796 20.6481C55.3614 20.3177 55.0424 19.9888 54.7227 19.6614C54.5407 19.4749 54.3572 19.2883 54.1722 19.1018C53.9217 18.8491 53.5136 18.8475 53.2608 19.098C53.0081 19.3485 53.0066 19.7566 53.2571 20.0093C53.4398 20.1928 53.6202 20.3771 53.8007 20.5613C54.1181 20.8864 54.4348 21.213 54.7516 21.5411C54.8787 21.6736 55.0477 21.7399 55.216 21.7399ZM1.02094 19.7969C1.0788 19.7969 1.13741 19.7893 1.19603 19.7726C1.53862 19.6759 1.73811 19.3203 1.64142 18.9777C1.48839 18.4349 1.37872 17.8707 1.31554 17.302C1.30412 17.1977 1.29427 17.0934 1.28589 16.9891C1.25772 16.6343 0.950882 16.3701 0.593048 16.3975C0.238266 16.4257 -0.0266724 16.7363 0.0022583 17.0904C0.0113831 17.2084 0.0228119 17.3256 0.0357513 17.4436C0.106552 18.0831 0.229904 18.7166 0.401978 19.3264C0.481155 19.6112 0.739243 19.7969 1.02094 19.7969ZM49.0217 15.7679C49.2006 15.7679 49.378 15.6941 49.5052 15.5494C49.7404 15.2822 49.7146 14.8756 49.4473 14.6404C48.9053 14.163 48.3564 13.6918 47.8013 13.2273C47.528 12.9989 47.1222 13.0355 46.8938 13.308C46.6654 13.5814 46.702 13.9872 46.9745 14.2156C47.5212 14.6731 48.0617 15.1375 48.5954 15.6073C48.7187 15.7146 48.8702 15.7679 49.0217 15.7679ZM2.04343 11.4801C2.27106 11.4801 2.49185 11.359 2.60834 11.1451C2.9281 10.5619 3.30722 9.98557 3.73357 9.43131C3.95055 9.14962 3.89803 8.74458 3.61633 8.5276C3.33463 8.31062 2.93036 8.36315 2.71262 8.64485C2.24591 9.25163 1.83023 9.88431 1.47925 10.5254C1.30795 10.8375 1.42216 11.2288 1.73431 11.4001C1.83252 11.4542 1.93912 11.4801 2.04343 11.4801ZM42.2626 10.4393C42.4666 10.4393 42.6669 10.3434 42.7917 10.163C42.995 9.87136 42.9227 9.46938 42.6303 9.2661C42.0327 8.85041 41.4259 8.4431 40.8252 8.05558C40.526 7.86372 40.1278 7.94899 39.9344 8.24743C39.7418 8.54664 39.8271 8.94482 40.1263 9.1382C40.7141 9.5181 41.3087 9.91628 41.8949 10.3236C42.0076 10.402 42.1354 10.4393 42.2626 10.4393ZM34.8601 6.06848C35.0992 6.06848 35.3291 5.93448 35.4402 5.70456C35.5955 5.38404 35.4615 4.9988 35.141 4.84425C34.4802 4.52449 33.8117 4.22071 33.1547 3.9413C32.8273 3.80198 32.4497 3.95501 32.3104 4.28239C32.1711 4.60976 32.3241 4.98815 32.6515 5.12747C33.2895 5.39851 33.9381 5.69314 34.5807 6.00453C34.6705 6.04793 34.7657 6.06848 34.8601 6.06848ZM8.03816 5.43353C8.15312 5.43353 8.26888 5.40308 8.37395 5.33836C8.96246 4.97749 9.5791 4.64402 10.2057 4.3471C10.527 4.19483 10.664 3.81036 10.5118 3.48907C10.3587 3.16779 9.97501 3.03075 9.65373 3.18301C8.98528 3.49973 8.32899 3.85528 7.7009 4.23975C7.39789 4.42552 7.30196 4.82217 7.48849 5.12594C7.61031 5.32465 7.82195 5.43353 8.03816 5.43353ZM26.7854 3.15636C27.0777 3.15636 27.3427 2.95613 27.4119 2.65845C27.4934 2.31204 27.278 1.96563 26.9315 1.88417C26.2159 1.71668 25.4918 1.57202 24.78 1.45554C24.4282 1.39844 24.0978 1.63522 24.04 1.98695C23.9821 2.33793 24.2204 2.66911 24.5714 2.72697C25.2551 2.83965 25.9501 2.97745 26.6376 3.13886C26.6871 3.15028 26.7366 3.15636 26.7854 3.15636ZM16.103 2.60972C16.1335 2.60972 16.1639 2.60744 16.1944 2.60364C16.8849 2.50542 17.5876 2.43462 18.2843 2.39198C18.639 2.37067 18.9093 2.06461 18.888 1.70982C18.8659 1.35504 18.5591 1.08553 18.2059 1.10608C17.4757 1.151 16.7387 1.22561 16.0147 1.32763C15.6622 1.37788 15.417 1.70373 15.4673 2.05623C15.5122 2.37752 15.7878 2.60972 16.103 2.60972Z" fill="white"/>
<path d="M235.48 169.289C235.531 169.289 235.582 169.283 235.634 169.271C235.979 169.186 236.191 168.838 236.106 168.492C236.02 168.139 235.931 167.788 235.837 167.438C235.745 167.095 235.392 166.892 235.048 166.982C234.705 167.074 234.501 167.428 234.592 167.771C234.683 168.113 234.771 168.455 234.855 168.798C234.926 169.093 235.19 169.289 235.48 169.289Z" fill="white"/>
<path d="M78.9847 24.3502C82.3399 28.3891 87.7233 30.1318 92.8098 28.8261L136.981 17.4837C141.319 16.3699 145.53 14.8122 149.549 12.8357L152.669 11.3009C155.049 10.1299 155.919 7.17367 154.552 4.90032C153.808 3.66315 152.518 2.85461 151.081 2.72366L146.365 2.2935C145.555 2.21965 144.75 2.08794 143.957 1.90065C140.512 1.08526 136.899 1.34868 133.608 2.6559L78.9847 24.3502Z" fill="white"/>
<path d="M97.4851 22.9093L70.0465 19.3516L66.3372 20.8247L103.438 31.096L106.041 30.0621L97.4851 22.9093Z" fill="white"/>
<path d="M79.5737 20.5874L75.0369 16.1373L78.6632 14.623L92.9062 18.8203L86.2712 21.456L79.5737 20.5874Z" fill="white"/>
<path d="M133.628 10.5162L74.9549 2.9082L67.0225 6.05862L146.358 28.0224L151.924 25.8115L133.628 10.5162Z" fill="white"/>
<path d="M87.5524 7.94066C88.1775 8.7766 89.289 9.08342 90.2544 8.68676L99.4506 4.90749C101.134 4.23903 101.36 1.94741 99.8389 0.963759C99.2329 0.57167 98.4753 0.497059 97.8046 0.763527L88.5399 4.44307C87.1398 4.99961 86.6502 6.73394 87.5524 7.94066Z" fill="white"/>
<path d="M144.002 21.8501L147.632 20.4089C148.931 19.8934 149.104 18.1264 147.931 17.3673C147.463 17.0651 146.88 17.0072 146.362 17.2128L137.073 20.9022L144.002 21.8501Z" fill="white"/>
<path d="M140.682 16.4146L122.096 21.3061L124 21.8551L141.537 17.1287L140.682 16.4146Z" fill="#8FCBFD"/>
<path d="M138.756 2.01747C139.086 2.26795 139.399 2.54051 139.691 2.83363C140.359 2.70191 141.038 2.58924 141.721 2.49559C141.404 2.17202 141.062 1.87434 140.7 1.60254C140.046 1.71141 139.397 1.84997 138.756 2.01747Z" fill="#47436C"/>
<path d="M136.375 2.78093C136.58 3.00933 136.81 3.24838 137.015 3.47602C137.651 3.29102 138.312 3.12962 138.982 2.98192C138.695 2.70403 138.394 2.44213 138.073 2.20459C137.5 2.37437 136.933 2.56623 136.375 2.78093Z" fill="#47436C"/>
<path d="M145.582 2.20322L142.991 1.61623C142.583 1.51574 141.968 1.41905 141.372 1.49975C141.743 1.77535 142.091 2.07989 142.415 2.40955C143.971 2.22683 144.1 2.17353 145.582 2.20322Z" fill="#47436C"/>
<path d="M97.274 5.80225L91.0241 8.371L99.0859 6.0375L97.274 5.80225Z" fill="#8FCBFD"/>
<path d="M146.16 20.9932L140.728 23.1508L146.961 21.6624L146.16 20.9932Z" fill="#8FCBFD"/>
<path d="M120.312 7.93666L130.922 3.72266L128.535 5.37019C127.216 6.28075 126.387 7.74328 126.282 9.34209L120.312 7.93666Z" fill="#BAECFE"/>
<path d="M131.994 4.0222C131.76 4.10594 131.614 4.29704 131.668 4.45007L131.794 4.80333C131.848 4.95636 132.083 5.01194 132.317 4.92895C132.552 4.8452 132.697 4.6541 132.643 4.50108L132.517 4.14782C132.463 3.99479 132.229 3.93845 131.994 4.0222Z" fill="#47436C"/>
<path d="M129.618 4.90403C129.384 4.98778 129.238 5.17887 129.292 5.3319L129.418 5.68516C129.472 5.83819 129.706 5.89376 129.94 5.81078C130.175 5.72779 130.32 5.53594 130.266 5.38291L130.14 5.02965C130.086 4.87738 129.853 4.82104 129.618 4.90403Z" fill="#47436C"/>
<path d="M127.248 5.78733C127.014 5.87108 126.868 6.06217 126.922 6.2152L127.048 6.56846C127.102 6.72149 127.337 6.77707 127.571 6.69408C127.806 6.61034 127.951 6.41924 127.897 6.26621L127.771 5.91295C127.716 5.76068 127.483 5.70434 127.248 5.78733Z" fill="#47436C"/>
<path d="M124.873 6.67112C124.639 6.75411 124.493 6.94596 124.547 7.09899L124.673 7.45225C124.728 7.60528 124.962 7.66085 125.196 7.57787C125.431 7.49488 125.576 7.30303 125.522 7.15L125.396 6.79674C125.342 6.64447 125.108 6.58813 124.873 6.67112Z" fill="#47436C"/>
<path d="M122.498 7.55457C122.264 7.63832 122.118 7.82942 122.172 7.98245L122.298 8.33571C122.352 8.48873 122.587 8.54431 122.821 8.46133C123.056 8.37758 123.201 8.18648 123.147 8.03345L123.021 7.68019C122.967 7.52717 122.732 7.47159 122.498 7.55457Z" fill="#47436C"/>
<path d="M107.02 17.1442L92.9089 18.8199L99.6155 16.1567L107.02 17.1442Z" fill="#BAECFE"/>
<path d="M100.718 16.1741C100.483 16.257 100.338 16.4489 100.392 16.6019L100.518 16.9552C100.572 17.1082 100.806 17.1638 101.04 17.0808C101.274 16.9971 101.42 16.806 101.366 16.6529L101.24 16.2997C101.186 16.1466 100.952 16.0903 100.718 16.1741Z" fill="#47436C"/>
<path d="M98.3576 17.1643C98.1232 17.248 97.9778 17.4391 98.0318 17.5922L98.1574 17.9454C98.2115 18.0984 98.446 18.154 98.6805 18.071C98.915 17.9881 99.0604 17.7962 99.0063 17.6432L98.8807 17.2899C98.8251 17.1376 98.5914 17.0813 98.3576 17.1643Z" fill="#47436C"/>
<path d="M95.9951 18.155C95.7606 18.2388 95.6152 18.4298 95.6693 18.5829L95.7949 18.9361C95.8489 19.0892 96.0834 19.1447 96.3171 19.0618C96.5516 18.978 96.6971 18.7869 96.643 18.6339L96.5174 18.2806C96.4633 18.1276 96.2296 18.0713 95.9951 18.155Z" fill="#47436C"/>
<path d="M79.5777 20.5872L90.5098 22.0048L78.5217 19.5518L79.5777 20.5872Z" fill="#8FCBFD"/>
<path d="M101.799 26.5176L93.7557 28.5831L95.7953 29.1221L102.771 27.3307L101.799 26.5176Z" fill="#8FCBFD"/>
<path d="M102.772 27.3306L104.613 28.8692L101.591 30.5853L95.7962 29.122L102.772 27.3306Z" fill="#BAECFE"/>
<path d="M75.0409 16.1373L78.5217 19.5519L90.5098 22.005L79.4384 18.8096L76.5582 16.1868L78.6672 14.623L75.0409 16.1373Z" fill="#BAECFE"/>
<path d="M78.9504 24.3174C80.1442 24.6478 85.207 26.1423 85.207 26.1423L80.0003 25.4449C80.0003 25.4449 79.4316 24.9896 78.9504 24.3174Z" fill="#8FCBFD"/>
<path d="M146.999 8.70919L92.1726 26.2565C88.4946 27.4335 84.5645 27.4183 80.9299 26.2565C84.2242 28.9029 88.6164 29.9033 92.8098 28.826L136.981 17.4836C141.319 16.3698 145.53 14.8121 149.549 12.8356L152.669 11.3008C152.741 11.2658 152.806 11.2239 152.875 11.1858C154.833 9.96769 155.681 5.71028 146.999 8.70919Z" fill="#BAECFE"/>
<path d="M67.0221 6.05865L69.2916 5.15723L119.602 14.0276L107.019 17.1445L67.0221 6.05865Z" fill="#BAECFE"/>
<path d="M132.42 19.5864L148.186 27.3551L146.358 28.0228L124.002 21.8552L132.42 19.5864Z" fill="#BAECFE"/>
<path d="M99.5638 16.1428L99.6155 16.1572L107.02 17.1447L101.128 15.5078L99.5638 16.1428Z" fill="#8FCBFD"/>
<path d="M119.981 7.85938L118.324 8.53164L128.365 9.83352L119.981 7.85938Z" fill="#8FCBFD"/>
<path d="M300.152 271.99H295.683V273.219C293.131 274.743 291.42 277.532 291.42 280.721C291.42 283.91 293.131 286.699 295.683 288.222V289.452H300.152C304.974 289.452 308.883 285.542 308.883 280.72C308.883 275.899 304.974 271.99 300.152 271.99Z" fill="#2F2D46"/>
<path d="M297.708 289.22C302.4 288.107 305.301 283.4 304.188 278.708C303.074 274.016 298.368 271.114 293.676 272.228C288.984 273.341 286.082 278.048 287.196 282.74C288.309 287.432 293.016 290.334 297.708 289.22Z" fill="#47436C"/>
<path d="M300.11 280.721C300.11 283.167 298.127 285.149 295.682 285.149C293.236 285.149 291.254 283.167 291.254 280.721C291.254 278.276 293.236 276.293 295.682 276.293C298.127 276.293 300.11 278.276 300.11 280.721Z" fill="#8D8EC4"/>
<path d="M296.167 276.321C296.666 276.812 297.031 277.444 297.204 278.125C297.456 279.12 297.312 280.202 296.855 281.121C296.284 282.27 295.223 283.167 293.994 283.539C293.491 283.691 292.963 283.75 292.438 283.727C293.246 284.6 294.399 285.15 295.683 285.15C298.128 285.15 300.111 283.167 300.111 280.722C300.112 278.439 298.384 276.562 296.167 276.321Z" fill="#69699A"/>
<path d="M328.972 271.989H324.504V273.219C321.951 274.743 320.24 277.532 320.24 280.72C320.24 283.91 321.951 286.698 324.504 288.222V289.451H328.972C333.794 289.451 337.704 285.542 337.704 280.72C337.704 275.899 333.794 271.989 328.972 271.989Z" fill="#2F2D46"/>
<path d="M327.89 288.785C332.34 286.926 334.441 281.812 332.582 277.362C330.724 272.912 325.609 270.811 321.159 272.669C316.709 274.528 314.608 279.642 316.467 284.092C318.325 288.542 323.44 290.643 327.89 288.785Z" fill="#2F2D46"/>
<path d="M328.932 280.721C328.932 283.167 326.95 285.149 324.504 285.149C322.059 285.149 320.076 283.167 320.076 280.721C320.076 278.276 322.059 276.293 324.504 276.293C326.95 276.293 328.932 278.276 328.932 280.721Z" fill="#2F2D46"/>
<path d="M324.985 276.321C325.484 276.812 325.85 277.443 326.023 278.124C326.275 279.119 326.13 280.201 325.673 281.12C325.102 282.27 324.042 283.167 322.813 283.538C322.31 283.691 321.781 283.749 321.256 283.726C322.064 284.6 323.218 285.149 324.501 285.149C326.947 285.149 328.929 283.167 328.929 280.721C328.93 278.439 327.203 276.561 324.985 276.321Z" fill="#2F2D46"/>
<path d="M232.454 271.989H227.986V273.219C225.433 274.743 223.723 277.532 223.723 280.72C223.723 283.91 225.433 286.698 227.986 288.222V289.451H232.454C237.277 289.451 241.186 285.542 241.186 280.72C241.185 275.899 237.277 271.989 232.454 271.989Z" fill="#2F2D46"/>
<path d="M231.366 288.787C235.816 286.929 237.917 281.814 236.059 277.364C234.2 272.914 229.086 270.813 224.636 272.672C220.186 274.53 218.085 279.645 219.943 284.095C221.802 288.545 226.916 290.646 231.366 288.787Z" fill="#47436C"/>
<path d="M232.411 280.721C232.411 283.166 230.428 285.149 227.983 285.149C225.537 285.149 223.555 283.166 223.555 280.721C223.555 278.275 225.537 276.293 227.983 276.293C230.428 276.293 232.411 278.275 232.411 280.721Z" fill="#8D8EC4"/>
<path d="M228.464 276.321C228.964 276.812 229.329 277.443 229.501 278.124C229.753 279.119 229.608 280.201 229.152 281.12C228.581 282.27 227.52 283.167 226.291 283.538C225.788 283.691 225.26 283.749 224.734 283.726C225.544 284.6 226.696 285.149 227.98 285.149C230.425 285.149 232.408 283.167 232.408 280.721C232.409 278.439 230.683 276.561 228.464 276.321Z" fill="#69699A"/>
<path d="M261.273 271.989H256.805V273.219C254.252 274.743 252.541 277.532 252.541 280.72C252.541 283.91 254.252 286.698 256.805 288.222V289.451H261.273C266.095 289.451 270.005 285.542 270.005 280.72C270.005 275.899 266.095 271.989 261.273 271.989Z" fill="#2F2D46"/>
<path d="M259.974 288.855C264.464 287.096 266.678 282.031 264.919 277.54C263.161 273.05 258.095 270.836 253.605 272.595C249.115 274.354 246.9 279.419 248.659 283.909C250.418 288.4 255.484 290.614 259.974 288.855Z" fill="#2F2D46"/>
<path d="M261.233 280.721C261.233 283.167 259.25 285.149 256.805 285.149C254.359 285.149 252.377 283.167 252.377 280.721C252.377 278.276 254.359 276.293 256.805 276.293C259.25 276.293 261.233 278.276 261.233 280.721Z" fill="#2F2D46"/>
<path d="M257.288 276.321C257.788 276.812 258.153 277.443 258.325 278.124C258.577 279.119 258.433 280.201 257.976 281.12C257.405 282.27 256.344 283.167 255.116 283.538C254.612 283.691 254.084 283.749 253.559 283.726C254.367 284.6 255.521 285.149 256.804 285.149C259.25 285.149 261.232 283.167 261.232 280.721C261.233 278.439 259.506 276.561 257.288 276.321Z" fill="#2F2D46"/>
<path d="M339.091 277.567H254.296C242.836 277.567 233.545 268.276 233.545 256.816V108.331C233.545 96.8702 242.836 87.5796 254.296 87.5796H339.091C350.551 87.5796 359.842 96.8702 359.842 108.331V256.815C359.842 268.276 350.551 277.567 339.091 277.567Z" fill="#E5A138"/>
<path d="M324.335 277.567H239.54C228.08 277.567 218.789 268.276 218.789 256.816V108.331C218.789 96.8702 228.08 87.5796 239.54 87.5796H324.335C335.795 87.5796 345.086 96.8702 345.086 108.331V256.815C345.086 268.276 335.795 277.567 324.335 277.567Z" fill="#9F5540"/>
<path d="M320.318 277.567H235.523C224.062 277.567 214.771 268.276 214.771 256.816V108.331C214.771 96.8702 224.062 87.5796 235.523 87.5796H320.317C331.778 87.5796 341.068 96.8702 341.068 108.331V256.815C341.069 268.276 331.778 277.567 320.318 277.567Z" fill="#E5A138"/>
<path d="M302.66 277.567H217.864C206.404 277.567 197.113 268.276 197.113 256.816V108.331C197.113 96.8702 206.404 87.5796 217.864 87.5796H302.659C314.119 87.5796 323.41 96.8702 323.41 108.331V256.815C323.411 268.276 314.12 277.567 302.66 277.567Z" fill="#F0C343"/>
<path d="M352.918 152.139H343.486V213.008H352.918V152.139Z" fill="#F6DC68"/>
<path d="M343.485 152.139H338.77V213.008H343.485V152.139Z" fill="#F0C343"/>
<path d="M209.048 260.403C207.759 260.403 206.715 259.359 206.715 258.07V106.42C206.715 105.131 207.759 104.087 209.048 104.087C210.336 104.087 211.38 105.131 211.38 106.42V258.07C211.38 259.359 210.337 260.403 209.048 260.403Z" fill="#F6DC68"/>
<path d="M223.354 260.403C222.066 260.403 221.021 259.359 221.021 258.07V106.42C221.021 105.131 222.066 104.087 223.354 104.087C224.642 104.087 225.687 105.131 225.687 106.42V258.07C225.687 259.359 224.642 260.403 223.354 260.403Z" fill="#F6DC68"/>
<path d="M237.657 260.403C236.369 260.403 235.324 259.359 235.324 258.07V106.42C235.324 105.131 236.369 104.087 237.657 104.087C238.945 104.087 239.99 105.131 239.99 106.42V258.07C239.99 259.359 238.945 260.403 237.657 260.403Z" fill="#F6DC68"/>
<path d="M251.962 260.403C250.673 260.403 249.629 259.359 249.629 258.07V106.42C249.629 105.131 250.673 104.087 251.962 104.087C253.25 104.087 254.294 105.131 254.294 106.42V258.07C254.294 259.359 253.249 260.403 251.962 260.403Z" fill="#F6DC68"/>
<path d="M266.264 260.403C264.976 260.403 263.932 259.359 263.932 258.07V106.42C263.932 105.131 264.976 104.087 266.264 104.087C267.553 104.087 268.597 105.131 268.597 106.42V258.07C268.597 259.359 267.553 260.403 266.264 260.403Z" fill="#F6DC68"/>
<path d="M280.569 260.403C279.281 260.403 278.236 259.359 278.236 258.07V106.42C278.236 105.131 279.281 104.087 280.569 104.087C281.857 104.087 282.902 105.131 282.902 106.42V258.07C282.901 259.359 281.857 260.403 280.569 260.403Z" fill="#F6DC68"/>
<path d="M294.872 260.403C293.584 260.403 292.539 259.359 292.539 258.07V106.42C292.539 105.131 293.584 104.087 294.872 104.087C296.16 104.087 297.205 105.131 297.205 106.42V258.07C297.205 259.359 296.16 260.403 294.872 260.403Z" fill="#F6DC68"/>
<path d="M309.176 260.403C307.888 260.403 306.844 259.359 306.844 258.07V106.42C306.844 105.131 307.888 104.087 309.176 104.087C310.465 104.087 311.509 105.131 311.509 106.42V258.07C311.509 259.359 310.465 260.403 309.176 260.403Z" fill="#F6DC68"/>
<path d="M209.049 104.087C208.729 104.087 208.424 104.152 208.146 104.269C208.986 104.622 209.576 105.452 209.576 106.42V258.07C209.576 259.038 208.986 259.868 208.146 260.221C208.424 260.338 208.73 260.403 209.049 260.403C210.338 260.403 211.382 259.359 211.382 258.07V106.42C211.381 105.131 210.338 104.087 209.049 104.087Z" fill="#E5A138"/>
<path d="M223.354 104.087C223.034 104.087 222.729 104.152 222.451 104.269C223.291 104.622 223.881 105.452 223.881 106.42V258.07C223.881 259.038 223.291 259.868 222.451 260.221C222.729 260.338 223.034 260.403 223.354 260.403C224.642 260.403 225.687 259.359 225.687 258.07V106.42C225.687 105.131 224.642 104.087 223.354 104.087Z" fill="#E5A138"/>
<path d="M237.657 104.087C237.336 104.087 237.032 104.152 236.754 104.269C237.594 104.622 238.184 105.452 238.184 106.42V258.07C238.184 259.038 237.594 259.868 236.754 260.221C237.032 260.338 237.337 260.403 237.657 260.403C238.945 260.403 239.99 259.359 239.99 258.07V106.42C239.99 105.131 238.945 104.087 237.657 104.087Z" fill="#E5A138"/>
<path d="M251.962 104.087C251.641 104.087 251.336 104.152 251.059 104.269C251.898 104.622 252.488 105.452 252.488 106.42V258.07C252.488 259.038 251.898 259.868 251.059 260.221C251.336 260.338 251.642 260.403 251.962 260.403C253.25 260.403 254.294 259.359 254.294 258.07V106.42C254.294 105.131 253.249 104.087 251.962 104.087Z" fill="#E5A138"/>
<path d="M266.264 104.087C265.944 104.087 265.639 104.152 265.361 104.269C266.201 104.622 266.791 105.452 266.791 106.42V258.07C266.791 259.038 266.201 259.868 265.361 260.221C265.639 260.338 265.944 260.403 266.264 260.403C267.552 260.403 268.597 259.359 268.597 258.07V106.42C268.597 105.131 267.552 104.087 266.264 104.087Z" fill="#E5A138"/>
<path d="M280.567 104.087C280.246 104.087 279.942 104.152 279.664 104.269C280.504 104.622 281.094 105.452 281.094 106.42V258.07C281.094 259.038 280.504 259.868 279.664 260.221C279.942 260.338 280.247 260.403 280.567 260.403C281.855 260.403 282.9 259.359 282.9 258.07V106.42C282.9 105.131 281.855 104.087 280.567 104.087Z" fill="#E5A138"/>
<path d="M294.87 104.087C294.549 104.087 294.245 104.152 293.967 104.269C294.807 104.622 295.397 105.452 295.397 106.42V258.07C295.397 259.038 294.807 259.868 293.967 260.221C294.245 260.338 294.55 260.403 294.87 260.403C296.158 260.403 297.202 259.359 297.202 258.07V106.42C297.202 105.131 296.158 104.087 294.87 104.087Z" fill="#E5A138"/>
<path d="M309.178 104.087C308.858 104.087 308.553 104.152 308.275 104.269C309.115 104.622 309.705 105.452 309.705 106.42V258.07C309.705 259.038 309.115 259.868 308.275 260.221C308.553 260.338 308.858 260.403 309.178 260.403C310.467 260.403 311.511 259.359 311.511 258.07V106.42C311.511 105.131 310.467 104.087 309.178 104.087Z" fill="#E5A138"/>
<path d="M291.407 255.967C283.443 257.96 275.371 253.119 273.378 245.155L271.032 235.779C269.04 227.815 273.88 219.743 281.844 217.75C289.809 215.757 297.881 220.598 299.874 228.562L302.219 237.938C304.213 245.902 299.371 253.974 291.407 255.967Z" fill="white"/>
<path d="M313.581 118.853L292.615 101.386L266.831 132.334L287.797 149.802L313.581 118.853Z" fill="#C82441"/>
<path d="M287.676 147.645L268.951 132.043L292.697 103.545L311.421 119.147L287.676 147.645ZM270.379 131.849L287.61 146.206L309.995 119.341L292.764 104.984L270.379 131.849Z" fill="white"/>
<path d="M295.039 117.557C294.472 117.268 293.927 116.99 293.376 116.709C293.355 116.753 293.341 116.781 293.329 116.81C293.167 117.206 293.003 117.601 292.845 117.998C292.815 118.072 292.779 118.099 292.704 118.107C291.772 118.213 290.84 118.323 289.908 118.427C289.81 118.437 289.756 118.472 289.714 118.565C288.765 120.653 288.879 122.577 290.074 124.338C290.154 124.455 290.247 124.563 290.333 124.676C288.939 126.35 287.55 128.016 286.154 129.691C285.895 129.495 285.647 129.303 285.395 129.116C284.862 128.718 284.321 128.332 283.733 128.016C283.563 127.924 283.377 127.857 283.195 127.787C283.108 127.754 283.03 127.78 282.964 127.87C282.888 127.976 282.801 128.076 282.713 128.173C282.65 128.242 282.648 128.282 282.72 128.342C284.382 129.723 286.041 131.108 287.701 132.491C288.227 132.929 288.752 133.366 289.278 133.803C289.378 133.886 289.378 133.885 289.465 133.781C289.538 133.693 289.61 133.606 289.683 133.519C289.798 133.382 289.816 133.34 289.726 133.201C289.584 132.983 289.438 132.765 289.27 132.569C288.75 131.966 288.17 131.424 287.577 130.896C287.498 130.826 287.421 130.753 287.346 130.683C288.745 129.004 290.136 127.334 291.527 125.665C291.563 125.684 291.593 125.698 291.621 125.713C292.146 126.01 292.71 126.218 293.321 126.294C295.461 126.562 297.29 125.824 298.783 124.071C299.677 123.023 300.549 121.955 301.429 120.896C301.8 120.449 302.168 119.999 302.54 119.553C302.61 119.47 302.609 119.425 302.531 119.359C300.697 117.835 298.865 116.308 297.033 114.782C297.007 114.761 296.978 114.742 296.938 114.713C296.751 115.3 296.57 115.87 296.385 116.451C295.953 116.312 295.532 116.176 295.099 116.037C295.078 116.552 295.059 117.043 295.039 117.557Z" fill="white"/>
<path d="M289.324 117.28C289.33 117.288 289.336 117.297 289.343 117.305C289.369 117.304 289.395 117.304 289.422 117.301C290.162 117.215 290.902 117.128 291.642 117.046C291.719 117.037 291.754 117.005 291.782 116.935C291.968 116.473 292.157 116.012 292.346 115.552C292.363 115.512 292.382 115.472 292.403 115.425C292.889 115.673 293.362 115.914 293.852 116.164C293.869 115.687 293.886 115.231 293.904 114.762C294.391 114.918 294.863 115.071 295.339 115.224C295.352 115.193 295.362 115.175 295.368 115.155C295.508 114.716 295.646 114.277 295.789 113.838C295.811 113.77 295.781 113.739 295.739 113.704C295.295 113.336 294.853 112.966 294.41 112.597C294.201 112.423 293.99 112.251 293.784 112.073C293.721 112.018 293.674 112.008 293.613 112.09C293.556 112.166 293.486 112.233 293.425 112.306C292.21 113.764 290.994 115.222 289.781 116.682C289.62 116.875 289.475 117.081 289.324 117.28Z" fill="white"/>
<path d="M277.783 128.949L277.473 129.321L278.301 130.012L277.841 130.564L277.012 129.873L276.434 130.568L275.764 130.01L277.573 127.839L279.188 129.184L278.728 129.736L277.783 128.949Z" fill="white"/>
<path d="M278.899 131.697L278.717 131.545L278.262 132.091L277.592 131.533L279.401 129.362L280.358 130.159C280.911 130.62 281 131.229 280.581 131.733C280.32 132.046 279.987 132.168 279.637 132.103L279.497 133.121L278.782 132.524L278.899 131.697ZM279.845 130.688L279.601 130.485L279.177 130.993L279.421 131.197C279.606 131.35 279.774 131.328 279.906 131.169C280.038 131.011 280.03 130.841 279.845 130.688Z" fill="white"/>
<path d="M281.377 134.045L280.622 133.416L280.174 133.683L279.492 133.115L282.17 131.667L282.828 132.216L281.887 135.111L281.195 134.534L281.377 134.045ZM281.632 133.363L281.894 132.657L281.246 133.042L281.632 133.363Z" fill="white"/>
<path d="M284.236 135.127L284.818 135.612L284.053 136.53C283.661 136.509 283.249 136.329 282.957 136.085C282.316 135.55 282.238 134.692 282.793 134.025C283.349 133.358 284.208 133.279 284.863 133.826C285.256 134.153 285.446 134.564 285.423 135.002L284.651 135.057C284.658 134.794 284.58 134.593 284.404 134.447C284.109 134.201 283.749 134.253 283.469 134.588C283.198 134.914 283.205 135.287 283.491 135.526C283.573 135.595 283.665 135.646 283.779 135.677L284.236 135.127Z" fill="white"/>
<path d="M285.958 134.824L286.628 135.382L284.818 137.553L284.148 136.995L285.958 134.824Z" fill="white"/>
<path d="M286.951 135.652L287.621 136.21L286.285 137.814L287.182 138.562L286.709 139.13L285.143 137.824L286.951 135.652Z" fill="white"/>
<path d="M289.006 140.107L288.547 140.659L286.895 139.283L288.704 137.111L290.319 138.457L289.859 139.009L288.903 138.211L288.691 138.466L289.531 139.165L289.092 139.693L288.252 138.993L288.014 139.279L289.006 140.107Z" fill="white"/>
<path d="M220.262 129.362L227.429 137.172L237.926 135.695L232.713 144.925L237.361 154.452L226.971 152.347L219.347 159.711L218.14 149.179L208.779 144.204L218.422 139.801L220.262 129.362Z" fill="white"/>
<path d="M219.583 148.196L212.27 144.309L219.804 140.869L221.241 132.712L226.841 138.815L235.043 137.662L230.969 144.872L234.6 152.317L226.484 150.671L220.526 156.425L219.583 148.196Z" fill="#C82441"/>
<path d="M221.027 147.215L215.76 144.414L221.185 141.938L222.22 136.064L226.253 140.458L232.159 139.628L229.226 144.82L231.841 150.181L225.995 148.995L221.706 153.139L221.027 147.215Z" fill="white"/>
<path d="M222.468 146.232L219.248 144.52L222.565 143.005L223.198 139.415L225.663 142.101L229.273 141.593L227.48 144.767L229.079 148.044L225.505 147.32L222.883 149.853L222.468 146.232Z" fill="#C82441"/>
<path d="M278.641 235.551C278.641 231.521 281.908 228.253 285.938 228.253C289.968 228.253 293.235 231.52 293.235 235.551C293.235 235.559 293.234 235.567 293.234 235.576C295.163 235.143 297.083 234.672 298.995 234.167L297.902 229.798C296.206 223.021 289.337 218.901 282.559 220.597C275.782 222.293 271.662 229.162 273.358 235.939L274.033 238.639C275.723 238.477 277.41 238.279 279.094 238.062C278.806 237.279 278.641 236.435 278.641 235.551Z" fill="#C82441"/>
<path d="M293.235 235.551C293.235 231.521 289.969 228.253 285.938 228.253C281.908 228.253 278.641 231.52 278.641 235.551C278.641 236.435 278.806 237.279 279.094 238.063C283.843 237.451 288.562 236.622 293.234 235.576C293.234 235.568 293.235 235.559 293.235 235.551Z" fill="white"/>
<path d="M299.899 237.777L299.879 237.698C297.148 238.477 294.417 239.257 291.686 240.036C288.931 240.821 286.178 241.608 283.423 242.393C280.802 243.141 278.18 243.889 275.559 244.638C277.546 250.984 284.162 254.755 290.697 253.12C297.475 251.424 301.595 244.555 299.899 237.777Z" fill="#C82441"/>
<path d="M298.993 234.167C297.081 234.673 295.161 235.144 293.232 235.577C288.561 236.623 283.84 237.452 279.093 238.064C277.409 238.281 275.722 238.478 274.031 238.64L275.352 243.919C275.413 244.163 275.482 244.402 275.557 244.639C278.178 243.891 280.8 243.143 283.422 242.394C286.176 241.609 288.93 240.822 291.684 240.037C294.415 239.258 297.146 238.478 299.877 237.699L298.993 234.167Z" fill="#991840"/>
<path d="M322.389 12.9115H315.01C315.01 9.86008 312.528 7.37812 309.477 7.37812H268.355C265.303 7.37812 262.821 9.86084 262.821 12.9115H255.443C255.443 5.79149 261.236 0 268.355 0H309.477C316.597 0 322.389 5.79149 322.389 12.9115Z" fill="#2F2C49"/>
<path d="M261.438 12.9116H256.826V87.5151H261.438V12.9116Z" fill="#464674"/>
<path d="M321.006 12.9116H316.395V87.5151H321.006V12.9116Z" fill="#464674"/>
<path d="M319.622 12.9115H312.244C312.244 9.86008 309.762 7.37812 306.71 7.37812H265.587C262.536 7.37812 260.054 9.86084 260.054 12.9115H252.676C252.676 5.79149 258.468 0 265.587 0H306.71C313.829 0 319.622 5.79149 319.622 12.9115Z" fill="#47436C"/>
<path d="M258.67 12.9116H254.059V87.5151H258.67V12.9116Z" fill="#69699A"/>
<path d="M318.24 12.9116H313.629V87.5151H318.24V12.9116Z" fill="#69699A"/>
<path d="M384.273 285.643H387.201V286.448C388.873 287.446 389.994 289.273 389.994 291.363C389.994 293.452 388.873 295.279 387.201 296.277V297.082H384.273C381.114 297.082 378.553 294.521 378.553 291.362C378.553 288.204 381.115 285.643 384.273 285.643Z" fill="#2F2D46"/>
<path d="M381.48 291.363C381.48 294.523 384.042 297.084 387.201 297.084C390.361 297.084 392.922 294.523 392.922 291.363C392.922 288.204 390.361 285.643 387.201 285.643C384.042 285.643 381.48 288.204 381.48 291.363Z" fill="#47436C"/>
<path d="M384.299 291.363C384.299 292.965 385.598 294.264 387.2 294.264C388.801 294.264 390.1 292.965 390.1 291.363C390.1 289.761 388.801 288.462 387.2 288.462C385.598 288.462 384.299 289.761 384.299 291.363Z" fill="#8D8EC4"/>
<path d="M386.883 288.48C386.555 288.802 386.316 289.215 386.203 289.662C386.038 290.314 386.132 291.022 386.432 291.624C386.806 292.377 387.501 292.965 388.306 293.208C388.635 293.308 388.982 293.346 389.326 293.331C388.796 293.903 388.041 294.264 387.2 294.264C385.598 294.264 384.299 292.965 384.299 291.363C384.299 289.868 385.43 288.638 386.883 288.48Z" fill="#69699A"/>
<path d="M365.393 285.643H368.32V286.448C369.993 287.446 371.113 289.273 371.113 291.363C371.113 293.452 369.993 295.279 368.32 296.277V297.082H365.393C362.233 297.082 359.672 294.521 359.672 291.362C359.672 288.204 362.233 285.643 365.393 285.643Z" fill="#2F2D46"/>
<path d="M362.6 291.363C362.6 294.523 365.161 297.084 368.32 297.084C371.48 297.084 374.041 294.523 374.041 291.363C374.041 288.204 371.48 285.643 368.32 285.643C365.161 285.643 362.6 288.204 362.6 291.363Z" fill="#2F2D46"/>
<path d="M365.418 291.363C365.418 292.965 366.717 294.264 368.319 294.264C369.921 294.264 371.219 292.965 371.219 291.363C371.219 289.761 369.921 288.462 368.319 288.462C366.717 288.462 365.418 289.761 365.418 291.363Z" fill="#2F2D46"/>
<path d="M368.002 288.48C367.674 288.802 367.434 289.215 367.322 289.662C367.156 290.314 367.251 291.022 367.55 291.624C367.924 292.377 368.619 292.965 369.424 293.208C369.753 293.308 370.1 293.346 370.444 293.331C369.914 293.903 369.159 294.264 368.317 294.264C366.716 294.264 365.416 292.965 365.416 291.363C365.417 289.868 366.548 288.638 368.002 288.48Z" fill="#2F2D46"/>
<path d="M428.627 285.643H431.554V286.448C433.227 287.446 434.348 289.273 434.348 291.363C434.348 293.452 433.227 295.279 431.554 296.277V297.082H428.627C425.467 297.082 422.906 294.521 422.906 291.362C422.906 288.204 425.467 285.643 428.627 285.643Z" fill="#2F2D46"/>
<path d="M425.834 291.363C425.834 294.523 428.395 297.084 431.555 297.084C434.714 297.084 437.275 294.523 437.275 291.363C437.275 288.204 434.714 285.643 431.555 285.643C428.395 285.643 425.834 288.204 425.834 291.363Z" fill="#47436C"/>
<path d="M428.652 291.363C428.652 292.965 429.951 294.264 431.553 294.264C433.155 294.264 434.454 292.965 434.454 291.363C434.454 289.761 433.155 288.462 431.553 288.462C429.951 288.462 428.652 289.761 428.652 291.363Z" fill="#8D8EC4"/>
<path d="M431.236 288.48C430.909 288.802 430.669 289.215 430.556 289.662C430.391 290.314 430.485 291.022 430.784 291.624C431.158 292.377 431.853 292.965 432.658 293.208C432.988 293.308 433.334 293.346 433.678 293.331C433.148 293.903 432.393 294.264 431.552 294.264C429.95 294.264 428.65 292.965 428.65 291.363C428.651 289.868 429.782 288.638 431.236 288.48Z" fill="#69699A"/>
<path d="M409.744 285.643H412.671V286.448C414.344 287.446 415.465 289.273 415.465 291.363C415.465 293.452 414.344 295.279 412.671 296.277V297.082H409.744C406.585 297.082 404.023 294.521 404.023 291.362C404.023 288.204 406.585 285.643 409.744 285.643Z" fill="#2F2D46"/>
<path d="M406.951 291.363C406.951 294.523 409.512 297.084 412.672 297.084C415.831 297.084 418.393 294.523 418.393 291.363C418.393 288.204 415.831 285.643 412.672 285.643C409.512 285.643 406.951 288.204 406.951 291.363Z" fill="#2F2D46"/>
<path d="M409.77 291.363C409.77 292.965 411.068 294.264 412.67 294.264C414.272 294.264 415.571 292.965 415.571 291.363C415.571 289.761 414.272 288.462 412.67 288.462C411.068 288.462 409.77 289.761 409.77 291.363Z" fill="#2F2D46"/>
<path d="M412.354 288.48C412.026 288.802 411.787 289.215 411.674 289.662C411.508 290.314 411.603 291.022 411.903 291.624C412.277 292.377 412.972 292.965 413.776 293.208C414.106 293.308 414.453 293.346 414.797 293.331C414.267 293.903 413.512 294.264 412.67 294.264C411.068 294.264 409.77 292.965 409.77 291.363C409.77 289.868 410.901 288.638 412.354 288.48Z" fill="#2F2D46"/>
<path d="M426.714 172.772H372.762V289.733H426.714H433.979C444.165 289.733 452.424 281.475 452.424 271.288V191.218C452.424 181.031 444.166 172.773 433.979 172.773H426.714V172.772Z" fill="#834F4A"/>
<path d="M380.027 289.733H365.498C355.312 289.733 347.053 281.475 347.053 271.288V191.218C347.053 181.031 355.311 172.773 365.498 172.773H380.027C390.214 172.773 398.473 181.031 398.473 191.218V271.288C398.472 281.475 390.214 289.733 380.027 289.733Z" fill="#A9654B"/>
<path d="M449.888 207.779H407.855C411.039 207.779 413.62 210.36 413.62 213.543V234.525V270.81C413.62 273.994 411.039 276.575 407.855 276.575H449.888C453.071 276.575 455.652 273.994 455.652 270.81V234.525V213.543C455.652 210.359 453.072 207.779 449.888 207.779Z" fill="#634448"/>
<path d="M413.621 270.809V234.524V213.542C413.621 210.359 411.041 207.778 407.857 207.778V276.574C411.041 276.574 413.621 273.993 413.621 270.809Z" fill="#A9654B"/>
<path d="M371.659 172.772H368.893V289.733H371.659V172.772Z" fill="#634448"/>
<path d="M455.652 215.925H413.619V218.077H455.652V215.925Z" fill="#A9654B"/>
<path d="M452.424 194.483H407.855V196.635H452.424V194.483Z" fill="#A9654B"/>
<path d="M370.234 105.68H375.193C375.193 103.63 376.861 101.961 378.912 101.961H406.549C408.599 101.961 410.268 103.629 410.268 105.68H415.226C415.226 100.895 411.334 97.0024 406.549 97.0024H378.912C374.127 97.0024 370.234 100.895 370.234 105.68Z" fill="#2F2C49"/>
<path d="M414.297 105.68H411.197V172.773H414.297V105.68Z" fill="#464674"/>
<path d="M374.263 105.68H371.164V172.773H374.263V105.68Z" fill="#464674"/>
<path d="M372.094 105.68H377.052C377.052 103.63 378.72 101.961 380.771 101.961H408.408C410.458 101.961 412.127 103.629 412.127 105.68H417.086C417.086 100.895 413.193 97.0024 408.408 97.0024H380.771C375.986 97.0024 372.094 100.895 372.094 105.68Z" fill="#47436C"/>
<path d="M416.156 105.68H413.057V172.773H416.156V105.68Z" fill="#69699A"/>
<path d="M376.123 105.68H373.023V172.773H376.123V105.68Z" fill="#69699A"/>
<path d="M425.611 107.386L425.885 107.396C430.311 96.9098 426.09 84.4573 415.696 79.214C415.277 79.0024 414.854 78.7983 414.427 78.6011C414.351 78.5661 414.274 78.5311 414.198 78.4961C403.482 73.6342 391.053 78.2996 385.691 88.5008L385.937 88.7619C392.893 95.1968 417.544 107.815 425.611 107.386Z" fill="#F2CD78"/>
<path d="M422.595 113.544C423.286 112.32 424.023 111.008 424.786 109.648C425.2 108.91 425.563 108.158 425.885 107.396L425.611 107.385C417.544 107.815 392.892 95.1967 385.937 88.7611L385.692 88.5C385.334 89.1814 385.007 89.8871 384.714 90.6173C384.035 92.3112 383.328 93.9687 382.604 95.5675C388.363 104.447 412.798 117.508 422.595 113.544Z" fill="#A4694A"/>
<path d="M422.596 113.544C412.798 117.507 388.363 104.447 382.604 95.5672C369.915 93.686 356.73 88.5675 346.33 81.0562C353.577 101.925 369.19 119.756 388.919 129.695C408.649 139.634 432.269 141.569 453.353 134.973C441.575 131.17 430.467 123.096 422.596 113.544Z" fill="#F2CD78"/>
<path d="M422.278 88.5643C421.887 92.8758 420.343 96.987 418.815 101.037C418.302 102.396 417.642 103.946 416.943 105.547C420.516 106.779 423.587 107.493 425.611 107.386L425.884 107.397C429.22 99.4941 427.643 90.4768 422.217 84.2681C422.392 85.6933 422.407 87.1444 422.278 88.5643Z" fill="#E6A85D"/>
<path d="M416.945 105.547C415.713 108.367 414.358 111.349 413.453 113.743C417.038 114.464 420.241 114.497 422.597 113.545C423.287 112.32 424.024 111.009 424.788 109.648C425.201 108.91 425.564 108.158 425.887 107.396L425.613 107.385C423.588 107.494 420.518 106.779 416.945 105.547Z" fill="#78413D"/>
<path d="M422.594 113.545C420.239 114.497 417.036 114.464 413.451 113.743C414.061 115.275 414.759 116.792 415.549 118.262C417.915 122.665 414.456 127.952 409.473 127.568C399.369 126.788 389.52 124.414 380.334 119.839C372.715 116.045 365.678 111.102 359.486 105.264C367.344 115.444 377.431 123.91 388.919 129.697C408.648 139.636 432.269 141.57 453.352 134.975C441.574 131.17 430.466 123.097 422.594 113.545Z" fill="#E6A85D"/>
<path d="M90.8881 195.674H87.3304V196.904C85.2976 198.428 83.9355 201.216 83.9355 204.406C83.9355 207.595 85.2976 210.384 87.3304 211.908V213.137H90.8881C94.7283 213.137 97.8406 209.228 97.8406 204.406C97.8406 199.583 94.7275 195.674 90.8881 195.674Z" fill="#2F2D46"/>
<path d="M87.3314 213.137C91.1712 213.137 94.284 209.228 94.284 204.406C94.284 199.583 91.1712 195.674 87.3314 195.674C83.4917 195.674 80.3789 199.583 80.3789 204.406C80.3789 209.228 83.4917 213.137 87.3314 213.137Z" fill="#47436C"/>
<path d="M90.8562 204.406C90.8562 206.851 89.2772 208.834 87.3304 208.834C85.3829 208.834 83.8047 206.851 83.8047 204.406C83.8047 201.961 85.3837 199.978 87.3304 199.978C89.2772 199.978 90.8562 201.961 90.8562 204.406Z" fill="#8D8EC4"/>
<path d="M87.7153 200.005C88.1135 200.496 88.4043 201.127 88.5414 201.809C88.7416 202.804 88.6274 203.885 88.2635 204.804C87.809 205.954 86.9646 206.85 85.9855 207.222C85.5851 207.374 85.1641 207.433 84.7461 207.41C85.3902 208.283 86.3084 208.833 87.3308 208.833C89.2783 208.833 90.8566 206.85 90.8566 204.405C90.8566 202.124 89.4816 200.246 87.7153 200.005Z" fill="#69699A"/>
<path d="M90.8881 253.07H87.3304V254.301C85.2976 255.825 83.9355 258.613 83.9355 261.802C83.9355 264.991 85.2976 267.78 87.3304 269.304V270.533H90.8881C94.7283 270.533 97.8406 266.624 97.8406 261.801C97.8406 256.979 94.7275 253.07 90.8881 253.07Z" fill="#2F2D46"/>
<path d="M87.3314 270.534C91.1712 270.534 94.284 266.625 94.284 261.802C94.284 256.98 91.1712 253.07 87.3314 253.07C83.4917 253.07 80.3789 256.98 80.3789 261.802C80.3789 266.625 83.4917 270.534 87.3314 270.534Z" fill="#47436C"/>
<path d="M87.3304 266.23C89.2777 266.23 90.8562 264.247 90.8562 261.802C90.8562 259.356 89.2777 257.374 87.3304 257.374C85.3832 257.374 83.8047 259.356 83.8047 261.802C83.8047 264.247 85.3832 266.23 87.3304 266.23Z" fill="#8D8EC4"/>
<path d="M87.7153 257.401C88.1135 257.892 88.4043 258.523 88.5414 259.204C88.7416 260.2 88.6274 261.281 88.2635 262.201C87.809 263.351 86.9646 264.247 85.9855 264.618C85.5851 264.771 85.1641 264.829 84.7461 264.806C85.3902 265.68 86.3084 266.229 87.3308 266.229C89.2783 266.229 90.8566 264.247 90.8566 261.801C90.8566 259.52 89.4816 257.642 87.7153 257.401Z" fill="#69699A"/>
<path d="M189.758 274.986V192.375C189.758 179.642 200.081 169.319 212.814 169.319H122.809H118.012H113.215C100.481 169.319 90.1582 179.642 90.1582 192.375V274.986C90.1582 287.72 100.481 298.042 113.215 298.042H122.808C123.177 298.042 123.543 298.031 123.907 298.015H211.716C199.492 297.441 189.758 287.351 189.758 274.986Z" fill="#C82441"/>
<path d="M127.568 274.986V192.375C127.568 179.642 137.891 169.319 150.625 169.319H148.166C135.432 169.319 125.109 179.642 125.109 192.375V274.986C125.109 287.351 134.844 297.441 147.067 298.015H146.111C145.747 298.031 145.381 298.042 145.012 298.042H147.471C147.84 298.042 148.206 298.031 148.57 298.015H149.526C137.304 297.441 127.568 287.351 127.568 274.986Z" fill="#2F2C49"/>
<path d="M147.069 298.015C134.846 297.441 125.112 287.351 125.112 274.986V192.375C125.112 179.642 135.435 169.319 148.168 169.319H147.474H145.014H142.677H140.218H137.881H135.422C122.687 169.319 112.365 179.642 112.365 192.375V274.986C112.365 287.72 122.688 298.042 135.422 298.042H137.881H145.015C145.384 298.042 145.75 298.031 146.114 298.015H147.069Z" fill="#47436C"/>
<path d="M161.385 274.986V192.375C161.385 179.642 171.708 169.319 184.441 169.319H181.982C169.249 169.319 158.926 179.642 158.926 192.375V274.986C158.926 287.351 168.66 297.441 180.884 298.015H179.927C179.563 298.031 179.197 298.042 178.829 298.042H181.288C181.656 298.042 182.022 298.031 182.386 298.015H183.343C171.119 297.441 161.385 287.351 161.385 274.986Z" fill="#2F2C49"/>
<path d="M180.884 298.015C168.66 297.441 158.926 287.351 158.926 274.986V192.375C158.926 179.642 169.249 169.319 181.982 169.319H181.288H178.829H176.492H174.032H171.695H169.236C156.503 169.319 146.18 179.642 146.18 192.375V274.986C146.18 287.72 156.503 298.042 169.236 298.042H171.695H178.83C179.198 298.042 179.564 298.031 179.928 298.015H180.884Z" fill="#47436C"/>
<path d="M125.11 195.674H112.363V221.597H125.11V195.674Z" fill="#535384"/>
<path d="M158.927 195.674H146.18V221.597H158.927V195.674Z" fill="#535384"/>
<path d="M222.408 169.319H217.611H212.814C200.08 169.319 189.758 179.642 189.758 192.375V274.986C189.758 287.351 199.492 297.441 211.716 298.015C212.079 298.031 212.446 298.042 212.814 298.042H222.408C235.142 298.042 245.464 287.719 245.464 274.986V192.375C245.465 179.642 235.142 169.319 222.408 169.319Z" fill="#991840"/>
<path d="M220.482 169.319H217.094V297.997H220.482V169.319Z" fill="#2F2C49"/>
<path d="M185.408 169.319H180.499C180.499 167.289 178.848 165.637 176.817 165.637H149.456C147.426 165.637 145.774 167.288 145.774 169.319H140.865C140.865 164.582 144.719 160.728 149.456 160.728H176.817C181.554 160.728 185.408 164.582 185.408 169.319Z" fill="#2F2C49"/>
<path d="M183.568 169.319H178.659C178.659 167.289 177.008 165.637 174.977 165.637H147.616C145.587 165.637 143.934 167.288 143.934 169.319H139.025C139.025 164.582 142.879 160.728 147.616 160.728H174.977C179.714 160.728 183.568 164.582 183.568 169.319Z" fill="#47436C"/>
<path d="M146.177 238.04L146.177 235.129C146.081 235.134 145.985 235.138 145.89 235.142C143.73 235.24 141.572 235.337 139.413 235.438C139.32 235.443 139.294 235.412 139.294 235.318C139.293 235.187 139.29 235.055 139.276 234.926C139.264 234.815 139.304 234.742 139.39 234.709C139.572 234.637 139.754 234.561 139.942 234.515C140.589 234.352 141.249 234.273 141.91 234.206C142.222 234.175 142.535 234.149 142.859 234.119C142.76 231.941 142.661 229.774 142.562 227.597C142.421 227.573 142.28 227.556 142.141 227.523C140.072 227.029 138.69 225.685 137.982 223.503C137.951 223.407 137.967 223.344 138.032 223.271C138.65 222.565 139.264 221.855 139.88 221.149C139.93 221.092 139.939 221.048 139.911 220.974C139.759 220.574 139.614 220.171 139.467 219.769C139.456 219.74 139.448 219.71 139.433 219.663C140.03 219.499 140.62 219.336 141.234 219.167C140.902 218.775 140.584 218.399 140.253 218.007C140.666 217.818 141.069 217.634 141.481 217.445C141.226 216.891 140.975 216.348 140.717 215.789C140.767 215.784 140.8 215.777 140.834 215.776C142.615 215.694 144.396 215.612 146.177 215.53V210.729L131.076 211.417L132.669 246.35L146.177 245.735V238.05V238.04ZM136.609 215.965C136.881 215.956 137.152 215.942 137.424 215.93C138.001 215.904 138.576 215.878 139.152 215.851C139.207 215.848 139.25 215.851 139.28 215.916C139.47 216.336 139.665 216.753 139.857 217.172C139.866 217.19 139.871 217.211 139.883 217.242C139.428 217.449 138.977 217.656 138.511 217.868C138.815 218.227 139.11 218.574 139.419 218.939C138.889 219.084 138.377 219.225 137.851 219.369C137.867 219.419 137.879 219.461 137.895 219.502C138.066 219.969 138.237 220.438 138.411 220.904C138.438 220.975 138.433 221.022 138.382 221.08C137.891 221.64 137.404 222.203 136.915 222.766C136.898 222.786 136.878 222.803 136.86 222.821C136.85 222.819 136.84 222.818 136.83 222.815C136.807 222.566 136.775 222.317 136.763 222.067C136.674 220.171 136.587 218.275 136.501 216.379C136.497 216.284 136.504 216.187 136.495 216.093C136.484 215.991 136.525 215.968 136.609 215.965ZM136.201 239.699L137.278 239.65L137.311 240.368L136.233 240.417L136.275 241.321L135.404 241.361L135.275 238.537L137.375 238.441L137.407 239.159L136.179 239.215L136.201 239.699ZM142.463 241.039L142.268 240.554L141.286 240.599L141.135 241.1L140.25 241.14L139.327 241.182L138.856 240.492L138.62 240.503L138.652 241.212L137.781 241.252L137.653 238.428L138.897 238.372C139.616 238.339 140.093 238.729 140.122 239.383C140.141 239.79 139.978 240.104 139.675 240.292L140.253 241.132L141.251 238.264L142.107 238.225L143.365 240.998L142.463 241.039ZM144.81 240.996C143.976 241.034 143.339 240.452 143.299 239.585C143.26 238.718 143.841 238.081 144.693 238.042C145.203 238.018 145.622 238.194 145.899 238.533L145.366 239.095C145.194 238.897 145.002 238.8 144.773 238.811C144.389 238.828 144.157 239.11 144.177 239.546C144.196 239.969 144.453 240.241 144.826 240.223C144.933 240.219 145.035 240.194 145.14 240.14L145.108 239.426L145.864 239.392L145.918 240.586C145.616 240.834 145.191 240.979 144.81 240.996Z" fill="#C8E3FE"/>
<path d="M144.213 227.495C144.181 227.502 144.151 227.512 144.111 227.522C144.21 229.693 144.309 231.863 144.409 234.048C144.512 234.048 144.618 234.05 144.723 234.048C145.208 234.042 145.693 234.046 146.178 234.069V226.523C146.073 226.608 145.974 226.697 145.86 226.777C145.358 227.133 144.801 227.36 144.213 227.495Z" fill="#C8E3FE"/>
<path d="M138.874 239.108L138.557 239.123L138.587 239.784L138.905 239.77C139.144 239.759 139.253 239.629 139.243 239.423C139.233 239.217 139.114 239.097 138.874 239.108Z" fill="#C8E3FE"/>
<path d="M153.483 210.395L146.178 210.728V215.529C146.779 215.501 147.381 215.474 147.982 215.446C148.085 215.441 148.115 215.474 148.12 215.583C148.145 216.163 148.178 216.743 148.205 217.323C148.27 218.7 148.346 220.075 148.393 221.452C148.468 223.604 147.716 225.294 146.178 226.524V234.07C146.485 234.084 146.794 234.105 147.1 234.142C147.357 234.172 147.611 234.235 147.863 234.3C148.022 234.342 148.038 234.386 148.046 234.564C148.051 234.678 148.057 234.791 148.062 234.904C148.068 235.04 148.068 235.04 147.939 235.046C147.352 235.074 146.765 235.101 146.178 235.128V238.038L147.049 237.999L147.177 240.823L146.306 240.862L146.178 238.048V245.733L155.075 245.327L153.483 210.395ZM147.598 240.804L147.469 237.981L148.34 237.941L148.435 240.026L149.601 239.973L149.635 240.711L147.598 240.804ZM149.875 240.701L149.746 237.877L151.846 237.781L151.879 238.499L150.635 238.556L150.65 238.887L151.742 238.837L151.774 239.523L150.681 239.573L150.698 239.944L151.99 239.885L152.023 240.603L149.875 240.701Z" fill="white"/>
<path d="M131.747 247.455L130.058 210.399L146.178 209.665V208.069L128.529 208.874L130.363 249.114L146.178 248.393V246.797L131.747 247.455Z" fill="#C8E3FE"/>
<path d="M155.79 207.631L146.178 208.069V209.665L154.406 209.29L156.095 246.345L146.178 246.798V248.393L157.624 247.871L155.79 207.631Z" fill="white"/>
<path d="M141.494 239.902L141.997 239.879L141.713 239.181L141.494 239.902Z" fill="#C8E3FE"/>
<path d="M153.483 210.395L155.075 245.328L146.178 245.734V246.798L156.095 246.345L154.406 209.29L146.178 209.665V210.728L153.483 210.395Z" fill="#C82441"/>
<path d="M131.748 247.455L146.178 246.797V245.734L132.671 246.35L131.078 211.416L146.178 210.728V209.665L130.059 210.399L131.748 247.455Z" fill="#991840"/>
<path d="M140.719 215.787C140.977 216.346 141.227 216.89 141.483 217.443C141.07 217.632 140.668 217.816 140.254 218.005C140.586 218.397 140.904 218.773 141.236 219.165C140.622 219.335 140.032 219.497 139.435 219.662C139.45 219.708 139.458 219.738 139.469 219.768C139.616 220.17 139.761 220.572 139.913 220.972C139.941 221.047 139.932 221.091 139.882 221.147C139.266 221.854 138.652 222.564 138.034 223.269C137.969 223.343 137.953 223.405 137.984 223.502C138.691 225.684 140.073 227.028 142.143 227.521C142.281 227.554 142.423 227.571 142.564 227.596C142.663 229.772 142.762 231.94 142.861 234.117C142.537 234.147 142.224 234.174 141.912 234.205C141.251 234.271 140.591 234.35 139.944 234.513C139.756 234.56 139.574 234.637 139.392 234.707C139.305 234.742 139.266 234.814 139.278 234.924C139.292 235.055 139.296 235.186 139.296 235.317C139.297 235.41 139.323 235.441 139.415 235.437C141.573 235.336 143.732 235.239 145.891 235.141C145.987 235.136 146.083 235.132 146.179 235.128V234.069C145.694 234.046 145.209 234.042 144.724 234.048C144.618 234.05 144.513 234.047 144.41 234.047C144.31 231.863 144.211 229.693 144.112 227.522C144.151 227.511 144.182 227.501 144.214 227.495C144.802 227.36 145.358 227.133 145.862 226.777C145.975 226.697 146.074 226.608 146.18 226.523V215.528C144.399 215.61 142.618 215.692 140.838 215.774C140.803 215.777 140.769 215.782 140.719 215.787Z" fill="#991840"/>
<path d="M147.938 235.048C148.067 235.042 148.067 235.042 148.06 234.905C148.055 234.792 148.049 234.679 148.044 234.566C148.036 234.387 148.021 234.343 147.861 234.301C147.609 234.235 147.355 234.174 147.099 234.143C146.792 234.106 146.483 234.085 146.176 234.071V235.13C146.764 235.102 147.351 235.075 147.938 235.048Z" fill="white"/>
<path d="M148.393 221.452C148.345 220.075 148.27 218.7 148.205 217.323C148.178 216.743 148.145 216.163 148.12 215.583C148.115 215.474 148.085 215.441 147.982 215.446C147.381 215.474 146.779 215.501 146.178 215.529V226.524C147.716 225.294 148.468 223.605 148.393 221.452Z" fill="#C82441"/>
<path d="M136.763 222.068C136.774 222.318 136.807 222.567 136.83 222.816C136.84 222.819 136.85 222.82 136.86 222.822C136.878 222.804 136.897 222.787 136.915 222.767C137.404 222.204 137.892 221.641 138.382 221.081C138.433 221.023 138.438 220.976 138.411 220.905C138.237 220.439 138.066 219.97 137.895 219.503C137.879 219.462 137.867 219.42 137.851 219.371C138.377 219.226 138.889 219.085 139.419 218.94C139.11 218.575 138.815 218.228 138.511 217.869C138.977 217.657 139.429 217.45 139.883 217.243C139.871 217.211 139.866 217.192 139.857 217.173C139.665 216.755 139.471 216.337 139.28 215.917C139.25 215.852 139.207 215.849 139.152 215.852C138.576 215.879 138.001 215.905 137.424 215.931C137.152 215.943 136.881 215.958 136.609 215.966C136.525 215.968 136.483 215.992 136.494 216.094C136.503 216.188 136.497 216.285 136.501 216.38C136.588 218.276 136.673 220.172 136.763 222.068Z" fill="#991840"/>
<path d="M137.377 238.441L135.277 238.537L135.406 241.36L136.277 241.32L136.236 240.417L137.313 240.368L137.28 239.65L136.203 239.699L136.181 239.214L137.41 239.159L137.377 238.441Z" fill="#991840"/>
<path d="M139.675 240.292C139.977 240.105 140.14 239.79 140.122 239.383C140.092 238.729 139.616 238.339 138.896 238.372L137.652 238.428L137.781 241.252L138.652 241.212L138.619 240.503L138.855 240.492L139.327 241.182L140.249 241.14L140.252 241.132L139.675 240.292ZM138.904 239.769L138.586 239.784L138.556 239.122L138.874 239.108C139.113 239.097 139.234 239.217 139.243 239.422C139.253 239.629 139.144 239.759 138.904 239.769Z" fill="#991840"/>
<path d="M141.251 238.264L140.253 241.132L140.258 241.139H140.25L141.135 241.099L141.286 240.598L142.268 240.554L142.464 241.038L143.365 240.997L142.107 238.225L141.251 238.264ZM141.496 239.902L141.714 239.18L141.997 239.878L141.496 239.902Z" fill="#991840"/>
<path d="M140.252 241.132L140.25 241.139H140.257L140.252 241.132Z" fill="white"/>
<path d="M145.111 239.426L145.144 240.14C145.039 240.194 144.937 240.219 144.829 240.223C144.456 240.24 144.2 239.969 144.181 239.546C144.161 239.11 144.392 238.828 144.776 238.811C145.005 238.8 145.198 238.897 145.37 239.095L145.903 238.533C145.625 238.194 145.206 238.019 144.697 238.042C143.844 238.081 143.263 238.718 143.303 239.585C143.342 240.452 143.979 241.034 144.813 240.996C145.193 240.979 145.619 240.834 145.922 240.586L145.868 239.392L145.111 239.426Z" fill="#991840"/>
<path d="M146.306 240.864L147.177 240.824L147.048 238L146.178 238.04V238.049L146.306 240.864Z" fill="#C82441"/>
<path d="M148.437 240.027L148.342 237.941L147.471 237.981L147.599 240.804L149.637 240.711L149.603 239.974L148.437 240.027Z" fill="#C82441"/>
<path d="M150.7 239.944L150.683 239.573L151.775 239.523L151.744 238.837L150.652 238.887L150.637 238.556L151.881 238.499L151.848 237.781L149.748 237.877L149.877 240.701L152.024 240.603L151.992 239.885L150.7 239.944Z" fill="#C82441"/>
</svg>
