<svg width="51" height="32" viewBox="0 0 51 32" fill="none" xmlns="http://www.w3.org/2000/svg">
<g clip-path="url(#clip0_844_1840)">
<path d="M9.67294 22.0682L0.398372 31.2498C0.202266 31.444 0.255914 31.7712 0.50397 31.894C0.636087 31.9594 0.793648 31.9486 0.915466 31.866L12.331 24.1166C12.7712 23.8178 12.7401 23.1651 12.2737 22.9085L10.5297 21.9493C10.2494 21.7952 9.89971 21.8437 9.67294 22.0682Z" fill="#49BC9E"/>
<path d="M16.1617 17.4225C13.2885 17.0671 10.7744 16.0003 10.0561 17.0669C9.33783 18.1336 13.4073 21.7522 16.5208 21.6892C20.294 21.6128 23.3449 15.2892 22.9856 14.5781C22.6265 13.8669 19.0349 17.7779 16.1617 17.4225Z" fill="white" stroke="white"/>
<path d="M33.1839 6.40009H29.0007C28.5131 6.40009 28.167 5.92794 28.3332 5.47423C29.6664 1.83603 31.1659 0.561364 34.2208 0.112515C34.7014 0.0418926 35.0892 0.479052 34.9838 0.948645L33.8851 5.84324C33.812 6.1686 33.5205 6.40009 33.1839 6.40009Z" fill="white"/>
<path d="M44.8953 2.84449C41.6629 3.55568 33.0432 7.82246 33.0432 7.82246L30.1699 14.9336C30.1699 14.9336 49.2051 5.68893 49.9234 4.62244C50.6418 3.55595 48.1277 2.13328 44.8953 2.84449Z" fill="#49BC9E" stroke="#49BC9E" stroke-width="0.8"/>
<path d="M32.6823 7.82235L11.4922 7.4668C11.4922 7.4668 11.4922 8.88923 12.2105 9.60013C12.9288 10.3111 25.4992 12.8001 25.4992 12.8001C25.4992 12.8001 26.0522 21.2598 22.2668 23.4668C19.9579 24.8131 14.7246 23.1115 15.4429 24.1779C16.1612 25.2444 16.5204 27.7333 23.3443 27.7333C30.1682 27.7333 32.6823 7.82235 32.6823 7.82235Z" fill="white" stroke="white"/>
</g>
<defs>
<clipPath id="clip0_844_1840">
<rect width="51" height="32" fill="white"/>
</clipPath>
</defs>
</svg>
