<svg width="51" height="32" viewBox="0 0 51 32" fill="none" xmlns="http://www.w3.org/2000/svg">
<g clip-path="url(#clip0_111_2210)">
<path d="M9.67294 22.0682L0.398372 31.2498C0.202266 31.444 0.255914 31.7712 0.50397 31.894C0.636087 31.9594 0.793648 31.9486 0.915466 31.866L12.331 24.1166C12.7712 23.8178 12.7401 23.1651 12.2737 22.9085L10.5297 21.9493C10.2494 21.7952 9.89971 21.8437 9.67294 22.0682Z" fill="#49BC9E"/>
<path d="M16.1617 17.4222C13.2885 17.0669 10.7744 16 10.0561 17.0667C9.33783 18.1333 13.4073 21.752 16.5208 21.689C20.294 21.6126 23.3449 15.289 22.9856 14.5779C22.6265 13.8667 19.0349 17.7776 16.1617 17.4222Z" fill="#1F3149" stroke="#1F3149"/>
<path d="M33.1839 6.40009H29.0007C28.5131 6.40009 28.167 5.92794 28.3332 5.47423C29.6664 1.83603 31.1659 0.561364 34.2208 0.112515C34.7014 0.0418926 35.0892 0.479052 34.9838 0.948645L33.8851 5.84324C33.812 6.1686 33.5205 6.40009 33.1839 6.40009Z" fill="#1F3149"/>
<path d="M44.8943 2.84473C41.6619 3.55593 33.0422 7.8227 33.0422 7.8227L30.1689 14.9338C30.1689 14.9338 49.2042 5.68917 49.9225 4.62269C50.6408 3.5562 48.1267 2.13353 44.8943 2.84473Z" fill="#49BC9E" stroke="#49BC9E" stroke-width="0.8"/>
<path d="M32.6833 7.82235L11.4932 7.4668C11.4932 7.4668 11.4932 8.88923 12.2115 9.60013C12.9298 10.3111 25.5002 12.8001 25.5002 12.8001C25.5002 12.8001 26.0532 21.2598 22.2678 23.4668C19.9589 24.8131 14.7256 23.1115 15.4439 24.1779C16.1622 25.2444 16.5213 27.7333 23.3453 27.7333C30.1692 27.7333 32.6833 7.82235 32.6833 7.82235Z" fill="#1F3149" stroke="#1F3149"/>
</g>
<defs>
<clipPath id="clip0_111_2210">
<rect width="51" height="32" fill="white"/>
</clipPath>
</defs>
</svg>
