<svg width="368" height="367" viewBox="0 0 368 367" fill="none" xmlns="http://www.w3.org/2000/svg">
<path d="M183.52 0C84.034 0 0 83.9483 0 183.333C0 282.718 84.034 366.667 183.52 366.667C283.007 366.667 367.041 282.718 367.041 183.333C367.041 83.9483 283.007 0 183.52 0ZM183.52 91.6667C215.214 91.6667 238.577 114.987 238.577 146.667C238.577 178.347 215.214 201.667 183.52 201.667C151.845 201.667 128.464 178.347 128.464 146.667C128.464 114.987 151.845 91.6667 183.52 91.6667ZM89.8149 270.82C106.277 246.62 133.731 230.487 165.168 230.487H201.872C233.328 230.487 260.764 246.62 277.226 270.82C253.772 295.9 220.5 311.667 183.52 311.667C146.541 311.667 113.269 295.9 89.8149 270.82Z" fill="#75767B"/>
</svg>
